<mxfile host="app.diagrams.net" agent="Mozilla/5.0 (Windows NT 10.0; Win64; x64) AppleWebKit/537.36 (KHTML, like Gecko) Chrome/127.0.0.0 Safari/537.36" version="24.7.7" pages="5">
  <diagram id="mzWLLx_lMGydZXTV0ku3" name="ListaCandidato">
    <mxGraphModel dx="1120" dy="1594" grid="1" gridSize="10" guides="1" tooltips="1" connect="1" arrows="1" fold="1" page="1" pageScale="1" pageWidth="850" pageHeight="1100" math="0" shadow="0">
      <root>
        <mxCell id="0" />
        <mxCell id="1" parent="0" />
        <mxCell id="12" value="" style="strokeWidth=1;shadow=0;dashed=0;align=center;html=1;shape=mxgraph.mockup.containers.browserWindow;rSize=0;strokeColor=#666666;strokeColor2=#008cff;strokeColor3=#c4c4c4;mainText=,;recursiveResize=0;" parent="1" vertex="1">
          <mxGeometry y="-620" width="910" height="490" as="geometry" />
        </mxCell>
        <mxCell id="fH9rgNEyZjdPNhgrVEDP-63" value="" style="verticalLabelPosition=bottom;verticalAlign=top;html=1;shape=mxgraph.basic.patternFillRect;fillStyle=diag;step=5;fillStrokeWidth=0.2;fillStrokeColor=#dddddd;fillColor=#f5f5f5;fontColor=#333333;strokeColor=#666666;" vertex="1" parent="12">
          <mxGeometry y="110" width="910" height="380" as="geometry" />
        </mxCell>
        <mxCell id="fH9rgNEyZjdPNhgrVEDP-75" value="" style="verticalLabelPosition=bottom;verticalAlign=top;html=1;shape=mxgraph.basic.patternFillRect;fillStyle=diag;step=5;fillStrokeWidth=0.2;fillStrokeColor=#dddddd;" vertex="1" parent="12">
          <mxGeometry x="140" y="170" width="750" height="300" as="geometry" />
        </mxCell>
        <mxCell id="13" value="Entrevista" style="strokeWidth=1;shadow=0;dashed=0;align=center;html=1;shape=mxgraph.mockup.containers.anchor;fontSize=17;fontColor=#666666;align=left;" parent="12" vertex="1">
          <mxGeometry x="60" y="12" width="110" height="26" as="geometry" />
        </mxCell>
        <mxCell id="14" value="https://www.entrevista.com.br" style="strokeWidth=1;shadow=0;dashed=0;align=center;html=1;shape=mxgraph.mockup.containers.anchor;rSize=0;fontSize=17;fontColor=#666666;align=left;" parent="12" vertex="1">
          <mxGeometry x="130" y="60" width="250" height="26" as="geometry" />
        </mxCell>
        <mxCell id="35" value="" style="rounded=0;whiteSpace=wrap;html=1;strokeColor=default;fillColor=none;" parent="12" vertex="1">
          <mxGeometry x="140" y="210" width="750" height="30" as="geometry" />
        </mxCell>
        <mxCell id="38" value="&lt;a href=&quot;data:page/id,gzVq4q3YyxGQ9W5EwFiD&quot;&gt;Novo&lt;/a&gt;" style="rounded=1;whiteSpace=wrap;html=1;strokeColor=#6c8ebf;fillColor=#dae8fc;" parent="12" vertex="1">
          <mxGeometry x="140" y="212.5" width="90" height="25" as="geometry" />
        </mxCell>
        <mxCell id="N5bAwiG9AN6rM_A-j7iG-64" value="Search" style="strokeWidth=1;shadow=0;dashed=0;align=center;html=1;shape=mxgraph.mockup.forms.searchBox;strokeColor=#999999;mainText=;strokeColor2=#008cff;fontColor=#666666;fontSize=17;align=left;spacingLeft=3;" parent="12" vertex="1">
          <mxGeometry x="780" y="213.75" width="108" height="22.5" as="geometry" />
        </mxCell>
        <mxCell id="63" value="" style="group" parent="12" vertex="1" connectable="0">
          <mxGeometry x="150" y="250" width="780" height="230" as="geometry" />
        </mxCell>
        <mxCell id="52" value="Nome" style="rounded=0;whiteSpace=wrap;html=1;strokeColor=default;fillColor=none;labelBackgroundColor=default;" parent="63" vertex="1">
          <mxGeometry x="-10" width="505.04" height="30" as="geometry" />
        </mxCell>
        <mxCell id="55" value="Ação" style="rounded=0;whiteSpace=wrap;html=1;strokeColor=default;fillColor=none;labelBackgroundColor=default;" parent="63" vertex="1">
          <mxGeometry x="495.04" width="244.96" height="30" as="geometry" />
        </mxCell>
        <mxCell id="57" value="Stanley Dias Paulo" style="rounded=0;whiteSpace=wrap;html=1;strokeColor=default;fillColor=none;align=left;" parent="63" vertex="1">
          <mxGeometry x="-10" y="30" width="505.04" height="30" as="geometry" />
        </mxCell>
        <mxCell id="58" value="" style="rounded=0;whiteSpace=wrap;html=1;strokeColor=default;fillColor=none;" parent="63" vertex="1">
          <mxGeometry x="495.04" y="30" width="244.96" height="30" as="geometry" />
        </mxCell>
        <mxCell id="61" value="Excluir" style="strokeColor=#999999;verticalLabelPosition=middle;shadow=0;dashed=0;verticalAlign=middle;strokeWidth=2;html=1;shape=mxgraph.mockup.misc.trashcanIcon;fillColor=none;labelBackgroundColor=none;labelBorderColor=none;labelPosition=right;align=left;" parent="63" vertex="1">
          <mxGeometry x="575.8628571428573" y="33.13" width="25.25714285714286" height="23.75" as="geometry" />
        </mxCell>
        <mxCell id="62" value="Editar" style="strokeColor=#999999;verticalLabelPosition=middle;shadow=0;dashed=0;verticalAlign=middle;strokeWidth=2;shape=mxgraph.mockup.misc.editIcon;labelBackgroundColor=none;labelBorderColor=none;fillColor=none;html=1;horizontal=1;labelPosition=right;align=left;" parent="63" vertex="1">
          <mxGeometry x="646.5828571428573" y="35" width="20.20571428571429" height="20" as="geometry" />
        </mxCell>
        <mxCell id="Q9nDAFz7ysFkqKfaO16P-64" value="" style="strokeColor=#999999;verticalLabelPosition=bottom;shadow=0;dashed=0;verticalAlign=top;strokeWidth=2;html=1;shape=mxgraph.mockup.misc.shareIcon;" parent="63" vertex="1">
          <mxGeometry x="505.14285714285717" y="33.129999999999995" width="30.30857142857143" height="25" as="geometry" />
        </mxCell>
        <mxCell id="fH9rgNEyZjdPNhgrVEDP-64" value="" style="verticalLabelPosition=bottom;verticalAlign=top;html=1;shape=mxgraph.basic.patternFillRect;fillStyle=diag;step=5;fillStrokeWidth=0.2;fillStrokeColor=#dddddd;fillColor=#f5f5f5;fontColor=#333333;strokeColor=#666666;" vertex="1" parent="12">
          <mxGeometry y="110" width="910" height="40" as="geometry" />
        </mxCell>
        <mxCell id="21" value="" style="verticalLabelPosition=bottom;shadow=1;dashed=0;align=center;html=1;verticalAlign=top;strokeWidth=1;shape=mxgraph.mockup.containers.userFemale;strokeColor=#666666;strokeColor2=#008cff;" parent="12" vertex="1">
          <mxGeometry x="800" y="115" width="30" height="30" as="geometry" />
        </mxCell>
        <mxCell id="fH9rgNEyZjdPNhgrVEDP-65" value="Usuário" style="text;html=1;align=center;verticalAlign=middle;whiteSpace=wrap;rounded=0;" vertex="1" parent="12">
          <mxGeometry x="840" y="115" width="60" height="30" as="geometry" />
        </mxCell>
        <mxCell id="fH9rgNEyZjdPNhgrVEDP-77" value="Candidato" style="text;html=1;align=center;verticalAlign=middle;whiteSpace=wrap;rounded=0;fontSize=19;fontStyle=1" vertex="1" parent="12">
          <mxGeometry x="160" y="175" width="60" height="30" as="geometry" />
        </mxCell>
        <mxCell id="fH9rgNEyZjdPNhgrVEDP-78" value="" style="group" vertex="1" connectable="0" parent="12">
          <mxGeometry x="10" y="160" width="120" height="156.88" as="geometry" />
        </mxCell>
        <mxCell id="fH9rgNEyZjdPNhgrVEDP-71" value="&lt;font style=&quot;font-size: 14px;&quot;&gt;Candidato&lt;/font&gt;" style="rounded=1;html=1;shadow=0;dashed=0;whiteSpace=wrap;fontSize=10;fillColor=#E6E6E6;align=center;strokeColor=#E6E6E6;fontColor=#333333;" vertex="1" parent="fH9rgNEyZjdPNhgrVEDP-78">
          <mxGeometry width="120" height="36.88" as="geometry" />
        </mxCell>
        <mxCell id="fH9rgNEyZjdPNhgrVEDP-72" value="&lt;font style=&quot;font-size: 14px;&quot;&gt;Entrevistador&lt;/font&gt;" style="rounded=1;html=1;shadow=0;dashed=0;whiteSpace=wrap;fontSize=10;fillColor=#E6E6E6;align=center;strokeColor=#E6E6E6;fontColor=#333333;" vertex="1" parent="fH9rgNEyZjdPNhgrVEDP-78">
          <mxGeometry y="39.370000000000005" width="120" height="36.88" as="geometry" />
        </mxCell>
        <mxCell id="fH9rgNEyZjdPNhgrVEDP-73" value="&lt;span style=&quot;font-size: 14px;&quot;&gt;Perguntas&lt;/span&gt;" style="rounded=1;html=1;shadow=0;dashed=0;whiteSpace=wrap;fontSize=10;fillColor=#E6E6E6;align=center;strokeColor=#E6E6E6;fontColor=#333333;" vertex="1" parent="fH9rgNEyZjdPNhgrVEDP-78">
          <mxGeometry y="80" width="120" height="36.88" as="geometry" />
        </mxCell>
        <mxCell id="fH9rgNEyZjdPNhgrVEDP-74" value="&lt;font style=&quot;font-size: 14px;&quot;&gt;Grupo Perguntas&lt;/font&gt;" style="rounded=1;html=1;shadow=0;dashed=0;whiteSpace=wrap;fontSize=10;fillColor=#E6E6E6;align=center;strokeColor=#E6E6E6;fontColor=#333333;" vertex="1" parent="fH9rgNEyZjdPNhgrVEDP-78">
          <mxGeometry y="120" width="120" height="36.88" as="geometry" />
        </mxCell>
        <mxCell id="4arTTeacs7XpA1vCac0D-63" value="DevBr" style="text;html=1;align=center;verticalAlign=middle;whiteSpace=wrap;rounded=0;fontSize=19;fontStyle=1" vertex="1" parent="12">
          <mxGeometry x="30" y="115" width="60" height="30" as="geometry" />
        </mxCell>
      </root>
    </mxGraphModel>
  </diagram>
  <diagram name="Detalhes" id="xI_SQflboeKyrqFdOgZD">
    <mxGraphModel dx="1187" dy="1887" grid="1" gridSize="10" guides="1" tooltips="1" connect="1" arrows="1" fold="1" page="1" pageScale="1" pageWidth="850" pageHeight="1100" math="0" shadow="0">
      <root>
        <mxCell id="1AQbX3okuUzblKnC6C71-0" />
        <mxCell id="1AQbX3okuUzblKnC6C71-1" parent="1AQbX3okuUzblKnC6C71-0" />
        <mxCell id="MMx5336pJoRzULK2YRKS-0" value="&lt;span style=&quot;color: rgba(0, 0, 0, 0); font-family: monospace; font-size: 0px; text-align: start;&quot;&gt;%3CmxGraphModel%3E%3Croot%3E%3CmxCell%20id%3D%220%22%2F%3E%3CmxCell%20id%3D%221%22%20parent%3D%220%22%2F%3E%3CmxCell%20id%3D%222%22%20value%3D%22%22%20style%3D%22group%22%20vertex%3D%221%22%20connectable%3D%220%22%20parent%3D%221%22%3E%3CmxGeometry%20x%3D%22130%22%20y%3D%22-420%22%20width%3D%22100%22%20height%3D%2260%22%20as%3D%22geometry%22%2F%3E%3C%2FmxCell%3E%3CmxCell%20id%3D%223%22%20value%3D%22Id%22%20style%3D%22rounded%3D0%3BwhiteSpace%3Dwrap%3Bhtml%3D1%3BstrokeColor%3Ddefault%3BfillColor%3Dnone%3BlabelBackgroundColor%3Ddefault%3B%22%20vertex%3D%221%22%20parent%3D%222%22%3E%3CmxGeometry%20width%3D%22100%22%20height%3D%2230%22%20as%3D%22geometry%22%2F%3E%3C%2FmxCell%3E%3CmxCell%20id%3D%224%22%20value%3D%2212312312312%22%20style%3D%22rounded%3D0%3BwhiteSpace%3Dwrap%3Bhtml%3D1%3BstrokeColor%3Ddefault%3BfillColor%3Dnone%3Balign%3Dleft%3B%22%20vertex%3D%221%22%20parent%3D%222%22%3E%3CmxGeometry%20y%3D%2230%22%20width%3D%22100%22%20height%3D%2230%22%20as%3D%22geometry%22%2F%3E%3C%2FmxCell%3E%3C%2Froot%3E%3C%2FmxGraphModel%3E&lt;/span&gt;" style="strokeWidth=1;shadow=0;dashed=0;align=center;html=1;shape=mxgraph.mockup.containers.browserWindow;rSize=0;strokeColor=#666666;strokeColor2=#008cff;strokeColor3=#c4c4c4;mainText=,;recursiveResize=0;" parent="1AQbX3okuUzblKnC6C71-1" vertex="1">
          <mxGeometry y="-640" width="850" height="500" as="geometry" />
        </mxCell>
        <mxCell id="MMx5336pJoRzULK2YRKS-1" value="Page 1" style="strokeWidth=1;shadow=0;dashed=0;align=center;html=1;shape=mxgraph.mockup.containers.anchor;fontSize=17;fontColor=#666666;align=left;" parent="MMx5336pJoRzULK2YRKS-0" vertex="1">
          <mxGeometry x="60" y="12" width="110" height="26" as="geometry" />
        </mxCell>
        <mxCell id="MMx5336pJoRzULK2YRKS-2" value="https://www.draw.io" style="strokeWidth=1;shadow=0;dashed=0;align=center;html=1;shape=mxgraph.mockup.containers.anchor;rSize=0;fontSize=17;fontColor=#666666;align=left;" parent="MMx5336pJoRzULK2YRKS-0" vertex="1">
          <mxGeometry x="130" y="60" width="250" height="26" as="geometry" />
        </mxCell>
        <mxCell id="MMx5336pJoRzULK2YRKS-3" value="" style="strokeWidth=1;shadow=0;dashed=0;align=center;html=1;shape=mxgraph.mockup.forms.searchBox;strokeColor=#999999;mainText=;strokeColor2=#008cff;fontColor=#666666;fontSize=17;align=left;spacingLeft=3;" parent="MMx5336pJoRzULK2YRKS-0" vertex="1">
          <mxGeometry y="110" width="850" height="60" as="geometry" />
        </mxCell>
        <mxCell id="MMx5336pJoRzULK2YRKS-4" value="" style="verticalLabelPosition=bottom;shadow=0;dashed=0;align=center;html=1;verticalAlign=top;strokeWidth=1;shape=mxgraph.mockup.containers.userFemale;strokeColor=#666666;strokeColor2=#008cff;" parent="MMx5336pJoRzULK2YRKS-0" vertex="1">
          <mxGeometry x="770" y="110" width="80" height="60" as="geometry" />
        </mxCell>
        <mxCell id="MMx5336pJoRzULK2YRKS-5" value="" style="strokeWidth=1;shadow=0;dashed=0;align=center;html=1;shape=mxgraph.mockup.containers.rrect;rSize=0;strokeColor=#666666;" parent="MMx5336pJoRzULK2YRKS-0" vertex="1">
          <mxGeometry y="170" width="130" height="330" as="geometry" />
        </mxCell>
        <mxCell id="MMx5336pJoRzULK2YRKS-6" value="Candidato" style="strokeColor=#001DBC;fillColor=#0050ef;strokeWidth=1;shadow=0;dashed=0;align=center;html=1;shape=mxgraph.mockup.containers.rrect;rSize=0;fontSize=17;fontColor=#ffffff;fontStyle=1;resizeWidth=1;" parent="MMx5336pJoRzULK2YRKS-5" vertex="1">
          <mxGeometry width="130" height="26" relative="1" as="geometry" />
        </mxCell>
        <mxCell id="MMx5336pJoRzULK2YRKS-7" value="Group 2" style="strokeColor=inherit;fillColor=inherit;gradientColor=inherit;strokeWidth=1;shadow=0;dashed=0;align=center;html=1;shape=mxgraph.mockup.containers.rrect;rSize=0;fontSize=17;fontColor=#666666;fontStyle=1;resizeWidth=1;" parent="MMx5336pJoRzULK2YRKS-5" vertex="1">
          <mxGeometry width="130" height="30" relative="1" as="geometry">
            <mxPoint y="30" as="offset" />
          </mxGeometry>
        </mxCell>
        <mxCell id="MMx5336pJoRzULK2YRKS-8" value="Group 3" style="strokeWidth=1;shadow=0;dashed=0;align=center;html=1;shape=mxgraph.mockup.containers.rrect;rSize=0;fontSize=17;fontColor=#ffffff;fontStyle=1;fillColor=none;strokeColor=default;resizeWidth=1;" parent="MMx5336pJoRzULK2YRKS-5" vertex="1">
          <mxGeometry width="130" height="30" relative="1" as="geometry">
            <mxPoint y="60" as="offset" />
          </mxGeometry>
        </mxCell>
        <mxCell id="MMx5336pJoRzULK2YRKS-15" value="Candidato" style="rounded=0;whiteSpace=wrap;html=1;strokeColor=default;fillColor=none;" parent="MMx5336pJoRzULK2YRKS-0" vertex="1">
          <mxGeometry x="130" y="175" width="720" height="30" as="geometry" />
        </mxCell>
        <mxCell id="epeJp1KQHo5NBQbGd864-23" value="Voltar" style="strokeWidth=1;shadow=0;dashed=0;align=center;html=1;shape=mxgraph.mockup.buttons.button;strokeColor=#666666;fontColor=#ffffff;mainText=;buttonStyle=round;fontSize=17;fontStyle=1;fillColor=#008cff;whiteSpace=wrap;" parent="MMx5336pJoRzULK2YRKS-0" vertex="1">
          <mxGeometry x="140" y="180" width="80" height="20" as="geometry" />
        </mxCell>
        <mxCell id="epeJp1KQHo5NBQbGd864-17" value="" style="group" parent="MMx5336pJoRzULK2YRKS-0" vertex="1" connectable="0">
          <mxGeometry x="680" y="220" width="100" height="60" as="geometry" />
        </mxCell>
        <mxCell id="epeJp1KQHo5NBQbGd864-18" value="Data de Alteração" style="rounded=0;whiteSpace=wrap;html=1;strokeColor=default;fillColor=none;labelBackgroundColor=default;" parent="epeJp1KQHo5NBQbGd864-17" vertex="1">
          <mxGeometry width="100" height="30" as="geometry" />
        </mxCell>
        <mxCell id="epeJp1KQHo5NBQbGd864-19" value="25/04/2024" style="rounded=0;whiteSpace=wrap;html=1;strokeColor=default;fillColor=none;align=left;" parent="epeJp1KQHo5NBQbGd864-17" vertex="1">
          <mxGeometry y="30" width="100" height="30" as="geometry" />
        </mxCell>
        <mxCell id="epeJp1KQHo5NBQbGd864-14" value="" style="group" parent="MMx5336pJoRzULK2YRKS-0" vertex="1" connectable="0">
          <mxGeometry x="580" y="220" width="100" height="60" as="geometry" />
        </mxCell>
        <mxCell id="epeJp1KQHo5NBQbGd864-15" value="Data de Criação" style="rounded=0;whiteSpace=wrap;html=1;strokeColor=default;fillColor=none;labelBackgroundColor=default;" parent="epeJp1KQHo5NBQbGd864-14" vertex="1">
          <mxGeometry width="100" height="30" as="geometry" />
        </mxCell>
        <mxCell id="epeJp1KQHo5NBQbGd864-16" value="24/04/2024" style="rounded=0;whiteSpace=wrap;html=1;strokeColor=default;fillColor=none;align=left;" parent="epeJp1KQHo5NBQbGd864-14" vertex="1">
          <mxGeometry y="30" width="100" height="30" as="geometry" />
        </mxCell>
        <mxCell id="epeJp1KQHo5NBQbGd864-11" value="" style="group" parent="MMx5336pJoRzULK2YRKS-0" vertex="1" connectable="0">
          <mxGeometry x="480" y="220" width="100" height="60" as="geometry" />
        </mxCell>
        <mxCell id="epeJp1KQHo5NBQbGd864-13" value="Stanley" style="rounded=0;whiteSpace=wrap;html=1;strokeColor=default;fillColor=none;align=left;" parent="epeJp1KQHo5NBQbGd864-11" vertex="1">
          <mxGeometry y="30" width="100" height="30" as="geometry" />
        </mxCell>
        <mxCell id="epeJp1KQHo5NBQbGd864-12" value="Usuario De Alteração" style="rounded=0;whiteSpace=wrap;html=1;strokeColor=default;fillColor=none;labelBackgroundColor=default;" parent="MMx5336pJoRzULK2YRKS-0" vertex="1">
          <mxGeometry x="480" y="220" width="100" height="30" as="geometry" />
        </mxCell>
        <mxCell id="epeJp1KQHo5NBQbGd864-8" value="" style="group" parent="MMx5336pJoRzULK2YRKS-0" vertex="1" connectable="0">
          <mxGeometry x="380" y="220" width="100" height="60" as="geometry" />
        </mxCell>
        <mxCell id="epeJp1KQHo5NBQbGd864-9" value="Usuario De Criação" style="rounded=0;whiteSpace=wrap;html=1;strokeColor=default;fillColor=none;labelBackgroundColor=default;" parent="epeJp1KQHo5NBQbGd864-8" vertex="1">
          <mxGeometry width="100" height="30" as="geometry" />
        </mxCell>
        <mxCell id="epeJp1KQHo5NBQbGd864-10" value="Stanley" style="rounded=0;whiteSpace=wrap;html=1;strokeColor=default;fillColor=none;align=left;" parent="epeJp1KQHo5NBQbGd864-8" vertex="1">
          <mxGeometry y="30" width="100" height="30" as="geometry" />
        </mxCell>
        <mxCell id="epeJp1KQHo5NBQbGd864-5" value="" style="group" parent="MMx5336pJoRzULK2YRKS-0" vertex="1" connectable="0">
          <mxGeometry x="280" y="220" width="100" height="60" as="geometry" />
        </mxCell>
        <mxCell id="epeJp1KQHo5NBQbGd864-6" value="Codigo" style="rounded=0;whiteSpace=wrap;html=1;strokeColor=default;fillColor=none;labelBackgroundColor=default;" parent="epeJp1KQHo5NBQbGd864-5" vertex="1">
          <mxGeometry width="100" height="30" as="geometry" />
        </mxCell>
        <mxCell id="epeJp1KQHo5NBQbGd864-7" value="1" style="rounded=0;whiteSpace=wrap;html=1;strokeColor=default;fillColor=none;align=left;" parent="epeJp1KQHo5NBQbGd864-5" vertex="1">
          <mxGeometry y="30" width="100" height="30" as="geometry" />
        </mxCell>
        <mxCell id="epeJp1KQHo5NBQbGd864-4" value="Stanley Dias&amp;nbsp;" style="rounded=0;whiteSpace=wrap;html=1;strokeColor=default;fillColor=none;align=left;" parent="MMx5336pJoRzULK2YRKS-0" vertex="1">
          <mxGeometry x="180" y="250" width="100" height="30" as="geometry" />
        </mxCell>
        <mxCell id="epeJp1KQHo5NBQbGd864-3" value="Nome" style="rounded=0;whiteSpace=wrap;html=1;strokeColor=default;fillColor=none;labelBackgroundColor=default;" parent="MMx5336pJoRzULK2YRKS-0" vertex="1">
          <mxGeometry x="180" y="220" width="100" height="30" as="geometry" />
        </mxCell>
      </root>
    </mxGraphModel>
  </diagram>
  <diagram id="MVflDyKe1JvPbOnjf4aJ" name="Editar">
    <mxGraphModel dx="1187" dy="1887" grid="1" gridSize="10" guides="1" tooltips="1" connect="1" arrows="1" fold="1" page="1" pageScale="1" pageWidth="850" pageHeight="1100" math="0" shadow="0">
      <root>
        <mxCell id="0" />
        <mxCell id="1" parent="0" />
        <mxCell id="r_aS_MIDuNJFBLVSepIX-1" value="" style="strokeWidth=1;shadow=0;dashed=0;align=center;html=1;shape=mxgraph.mockup.containers.browserWindow;rSize=0;strokeColor=#666666;strokeColor2=#008cff;strokeColor3=#c4c4c4;mainText=,;recursiveResize=0;" parent="1" vertex="1">
          <mxGeometry y="-620" width="920" height="500" as="geometry" />
        </mxCell>
        <mxCell id="r_aS_MIDuNJFBLVSepIX-2" value="Page 1" style="strokeWidth=1;shadow=0;dashed=0;align=center;html=1;shape=mxgraph.mockup.containers.anchor;fontSize=17;fontColor=#666666;align=left;" parent="r_aS_MIDuNJFBLVSepIX-1" vertex="1">
          <mxGeometry x="60" y="12" width="110" height="26" as="geometry" />
        </mxCell>
        <mxCell id="r_aS_MIDuNJFBLVSepIX-3" value="https://www.draw.io" style="strokeWidth=1;shadow=0;dashed=0;align=center;html=1;shape=mxgraph.mockup.containers.anchor;rSize=0;fontSize=17;fontColor=#666666;align=left;" parent="r_aS_MIDuNJFBLVSepIX-1" vertex="1">
          <mxGeometry x="130" y="60" width="250" height="26" as="geometry" />
        </mxCell>
        <mxCell id="r_aS_MIDuNJFBLVSepIX-4" value="" style="strokeWidth=1;shadow=0;dashed=0;align=center;html=1;shape=mxgraph.mockup.forms.searchBox;strokeColor=#999999;mainText=;strokeColor2=#008cff;fontColor=#666666;fontSize=17;align=left;spacingLeft=3;" parent="r_aS_MIDuNJFBLVSepIX-1" vertex="1">
          <mxGeometry y="110" width="850" height="60" as="geometry" />
        </mxCell>
        <mxCell id="r_aS_MIDuNJFBLVSepIX-5" value="" style="verticalLabelPosition=bottom;shadow=0;dashed=0;align=center;html=1;verticalAlign=top;strokeWidth=1;shape=mxgraph.mockup.containers.userFemale;strokeColor=#666666;strokeColor2=#008cff;" parent="r_aS_MIDuNJFBLVSepIX-1" vertex="1">
          <mxGeometry x="770" y="110" width="80" height="60" as="geometry" />
        </mxCell>
        <mxCell id="r_aS_MIDuNJFBLVSepIX-6" value="" style="strokeWidth=1;shadow=0;dashed=0;align=center;html=1;shape=mxgraph.mockup.containers.rrect;rSize=0;strokeColor=#666666;" parent="r_aS_MIDuNJFBLVSepIX-1" vertex="1">
          <mxGeometry y="170" width="130" height="330" as="geometry" />
        </mxCell>
        <mxCell id="r_aS_MIDuNJFBLVSepIX-7" value="Candidato" style="strokeColor=#001DBC;fillColor=#0050ef;strokeWidth=1;shadow=0;dashed=0;align=center;html=1;shape=mxgraph.mockup.containers.rrect;rSize=0;fontSize=17;fontColor=#ffffff;fontStyle=1;resizeWidth=1;" parent="r_aS_MIDuNJFBLVSepIX-6" vertex="1">
          <mxGeometry width="130" height="26" relative="1" as="geometry" />
        </mxCell>
        <mxCell id="r_aS_MIDuNJFBLVSepIX-8" value="Group 2" style="strokeColor=inherit;fillColor=inherit;gradientColor=inherit;strokeWidth=1;shadow=0;dashed=0;align=center;html=1;shape=mxgraph.mockup.containers.rrect;rSize=0;fontSize=17;fontColor=#666666;fontStyle=1;resizeWidth=1;" parent="r_aS_MIDuNJFBLVSepIX-6" vertex="1">
          <mxGeometry width="130" height="30" relative="1" as="geometry">
            <mxPoint y="30" as="offset" />
          </mxGeometry>
        </mxCell>
        <mxCell id="r_aS_MIDuNJFBLVSepIX-9" value="Group 3" style="strokeWidth=1;shadow=0;dashed=0;align=center;html=1;shape=mxgraph.mockup.containers.rrect;rSize=0;fontSize=17;fontColor=#ffffff;fontStyle=1;fillColor=none;strokeColor=default;resizeWidth=1;" parent="r_aS_MIDuNJFBLVSepIX-6" vertex="1">
          <mxGeometry width="130" height="36" relative="1" as="geometry">
            <mxPoint y="60" as="offset" />
          </mxGeometry>
        </mxCell>
        <mxCell id="r_aS_MIDuNJFBLVSepIX-10" value="Candidato" style="rounded=0;whiteSpace=wrap;html=1;strokeColor=default;fillColor=none;" parent="r_aS_MIDuNJFBLVSepIX-1" vertex="1">
          <mxGeometry x="130" y="175" width="720" height="30" as="geometry" />
        </mxCell>
        <mxCell id="r_aS_MIDuNJFBLVSepIX-11" value="&lt;a href=&quot;null&quot;&gt;Novo&lt;/a&gt;" style="rounded=1;whiteSpace=wrap;html=1;strokeColor=default;fillColor=none;" parent="r_aS_MIDuNJFBLVSepIX-1" vertex="1">
          <mxGeometry x="130" y="177.5" width="90" height="25" as="geometry" />
        </mxCell>
        <mxCell id="r_aS_MIDuNJFBLVSepIX-12" value="Search" style="strokeWidth=1;shadow=0;dashed=0;align=center;html=1;shape=mxgraph.mockup.forms.searchBox;strokeColor=#999999;mainText=;strokeColor2=#008cff;fontColor=#666666;fontSize=17;align=left;spacingLeft=3;" parent="r_aS_MIDuNJFBLVSepIX-1" vertex="1">
          <mxGeometry x="742" y="178.75" width="108" height="22.5" as="geometry" />
        </mxCell>
        <mxCell id="r_aS_MIDuNJFBLVSepIX-14" value="Nome" style="rounded=0;whiteSpace=wrap;html=1;strokeColor=default;fillColor=none;labelBackgroundColor=default;" parent="r_aS_MIDuNJFBLVSepIX-1" vertex="1">
          <mxGeometry x="210" y="260" width="90" height="30" as="geometry" />
        </mxCell>
        <mxCell id="r_aS_MIDuNJFBLVSepIX-13" value="" style="group" parent="r_aS_MIDuNJFBLVSepIX-1" vertex="1" connectable="0">
          <mxGeometry x="300" y="230" width="620" height="60" as="geometry" />
        </mxCell>
        <mxCell id="r_aS_MIDuNJFBLVSepIX-16" value="&quot;Stanley Dias Paulo&quot;" style="rounded=0;whiteSpace=wrap;html=1;strokeColor=default;fillColor=none;align=left;" parent="r_aS_MIDuNJFBLVSepIX-13" vertex="1">
          <mxGeometry y="30" width="434" height="30" as="geometry" />
        </mxCell>
      </root>
    </mxGraphModel>
  </diagram>
  <diagram id="zyCzVKNMe1nS8_Y_5fFQ" name="Excluir">
    <mxGraphModel dx="1187" dy="1887" grid="1" gridSize="10" guides="1" tooltips="1" connect="1" arrows="1" fold="1" page="1" pageScale="1" pageWidth="850" pageHeight="1100" math="0" shadow="0">
      <root>
        <mxCell id="0" />
        <mxCell id="1" parent="0" />
        <mxCell id="uK_DNEDG53lvTUli0mf8-21" value="" style="strokeWidth=1;shadow=0;dashed=0;align=center;html=1;shape=mxgraph.mockup.containers.browserWindow;rSize=0;strokeColor=#666666;strokeColor2=#008cff;strokeColor3=#c4c4c4;mainText=,;recursiveResize=0;" parent="1" vertex="1">
          <mxGeometry y="-600" width="850" height="500" as="geometry" />
        </mxCell>
        <mxCell id="uK_DNEDG53lvTUli0mf8-22" value="Page 1" style="strokeWidth=1;shadow=0;dashed=0;align=center;html=1;shape=mxgraph.mockup.containers.anchor;fontSize=17;fontColor=#666666;align=left;" parent="uK_DNEDG53lvTUli0mf8-21" vertex="1">
          <mxGeometry x="60" y="12" width="110" height="26" as="geometry" />
        </mxCell>
        <mxCell id="uK_DNEDG53lvTUli0mf8-23" value="https://www.draw.io" style="strokeWidth=1;shadow=0;dashed=0;align=center;html=1;shape=mxgraph.mockup.containers.anchor;rSize=0;fontSize=17;fontColor=#666666;align=left;" parent="uK_DNEDG53lvTUli0mf8-21" vertex="1">
          <mxGeometry x="130" y="60" width="250" height="26" as="geometry" />
        </mxCell>
        <mxCell id="uK_DNEDG53lvTUli0mf8-24" value="" style="strokeWidth=1;shadow=0;dashed=0;align=center;html=1;shape=mxgraph.mockup.forms.searchBox;strokeColor=#999999;mainText=;strokeColor2=#008cff;fontColor=#666666;fontSize=17;align=left;spacingLeft=3;" parent="uK_DNEDG53lvTUli0mf8-21" vertex="1">
          <mxGeometry y="110" width="850" height="60" as="geometry" />
        </mxCell>
        <mxCell id="uK_DNEDG53lvTUli0mf8-25" value="" style="verticalLabelPosition=bottom;shadow=0;dashed=0;align=center;html=1;verticalAlign=top;strokeWidth=1;shape=mxgraph.mockup.containers.userFemale;strokeColor=#666666;strokeColor2=#008cff;" parent="uK_DNEDG53lvTUli0mf8-21" vertex="1">
          <mxGeometry x="770" y="110" width="80" height="60" as="geometry" />
        </mxCell>
        <mxCell id="uK_DNEDG53lvTUli0mf8-26" value="" style="strokeWidth=1;shadow=0;dashed=0;align=center;html=1;shape=mxgraph.mockup.containers.rrect;rSize=0;strokeColor=#666666;" parent="uK_DNEDG53lvTUli0mf8-21" vertex="1">
          <mxGeometry y="170" width="130" height="330" as="geometry" />
        </mxCell>
        <mxCell id="uK_DNEDG53lvTUli0mf8-27" value="Candidato" style="strokeColor=#001DBC;fillColor=#0050ef;strokeWidth=1;shadow=0;dashed=0;align=center;html=1;shape=mxgraph.mockup.containers.rrect;rSize=0;fontSize=17;fontColor=#ffffff;fontStyle=1;resizeWidth=1;" parent="uK_DNEDG53lvTUli0mf8-26" vertex="1">
          <mxGeometry width="130" height="26" relative="1" as="geometry" />
        </mxCell>
        <mxCell id="uK_DNEDG53lvTUli0mf8-28" value="Group 2" style="strokeColor=inherit;fillColor=inherit;gradientColor=inherit;strokeWidth=1;shadow=0;dashed=0;align=center;html=1;shape=mxgraph.mockup.containers.rrect;rSize=0;fontSize=17;fontColor=#666666;fontStyle=1;resizeWidth=1;" parent="uK_DNEDG53lvTUli0mf8-26" vertex="1">
          <mxGeometry width="130" height="30" relative="1" as="geometry">
            <mxPoint y="30" as="offset" />
          </mxGeometry>
        </mxCell>
        <mxCell id="uK_DNEDG53lvTUli0mf8-29" value="Group 3" style="strokeWidth=1;shadow=0;dashed=0;align=center;html=1;shape=mxgraph.mockup.containers.rrect;rSize=0;fontSize=17;fontColor=#ffffff;fontStyle=1;fillColor=none;strokeColor=default;resizeWidth=1;" parent="uK_DNEDG53lvTUli0mf8-26" vertex="1">
          <mxGeometry width="130" height="36" relative="1" as="geometry">
            <mxPoint y="60" as="offset" />
          </mxGeometry>
        </mxCell>
        <mxCell id="uK_DNEDG53lvTUli0mf8-30" value="Candidato" style="rounded=0;whiteSpace=wrap;html=1;strokeColor=default;fillColor=none;" parent="uK_DNEDG53lvTUli0mf8-21" vertex="1">
          <mxGeometry x="130" y="175" width="720" height="30" as="geometry" />
        </mxCell>
        <mxCell id="uK_DNEDG53lvTUli0mf8-31" value="&lt;a href=&quot;null&quot;&gt;Novo&lt;/a&gt;" style="rounded=1;whiteSpace=wrap;html=1;strokeColor=default;fillColor=none;" parent="uK_DNEDG53lvTUli0mf8-21" vertex="1">
          <mxGeometry x="130" y="177.5" width="90" height="25" as="geometry" />
        </mxCell>
        <mxCell id="uK_DNEDG53lvTUli0mf8-32" value="Search" style="strokeWidth=1;shadow=0;dashed=0;align=center;html=1;shape=mxgraph.mockup.forms.searchBox;strokeColor=#999999;mainText=;strokeColor2=#008cff;fontColor=#666666;fontSize=17;align=left;spacingLeft=3;" parent="uK_DNEDG53lvTUli0mf8-21" vertex="1">
          <mxGeometry x="742" y="178.75" width="108" height="22.5" as="geometry" />
        </mxCell>
        <mxCell id="uK_DNEDG53lvTUli0mf8-33" value="" style="group" parent="uK_DNEDG53lvTUli0mf8-21" vertex="1" connectable="0">
          <mxGeometry x="140" y="205" width="700" height="100" as="geometry" />
        </mxCell>
        <mxCell id="uK_DNEDG53lvTUli0mf8-34" value="Nome" style="rounded=0;whiteSpace=wrap;html=1;strokeColor=default;fillColor=none;labelBackgroundColor=default;" parent="uK_DNEDG53lvTUli0mf8-33" vertex="1">
          <mxGeometry width="490" height="30" as="geometry" />
        </mxCell>
        <mxCell id="uK_DNEDG53lvTUli0mf8-35" value="Ação" style="rounded=0;whiteSpace=wrap;html=1;strokeColor=default;fillColor=none;labelBackgroundColor=default;" parent="uK_DNEDG53lvTUli0mf8-33" vertex="1">
          <mxGeometry x="490" width="210" height="30" as="geometry" />
        </mxCell>
        <mxCell id="uK_DNEDG53lvTUli0mf8-36" value="Stanley Dias Paulo" style="rounded=0;whiteSpace=wrap;html=1;strokeColor=default;fillColor=none;align=left;" parent="uK_DNEDG53lvTUli0mf8-33" vertex="1">
          <mxGeometry y="30" width="490" height="30" as="geometry" />
        </mxCell>
        <mxCell id="uK_DNEDG53lvTUli0mf8-37" value="" style="rounded=0;whiteSpace=wrap;html=1;strokeColor=default;fillColor=none;" parent="uK_DNEDG53lvTUli0mf8-33" vertex="1">
          <mxGeometry x="490" y="30" width="210" height="30" as="geometry" />
        </mxCell>
        <mxCell id="uK_DNEDG53lvTUli0mf8-38" value="Excluir" style="strokeColor=#999999;verticalLabelPosition=middle;shadow=0;dashed=0;verticalAlign=middle;strokeWidth=2;html=1;shape=mxgraph.mockup.misc.trashcanIcon;fillColor=none;labelBackgroundColor=none;labelBorderColor=none;labelPosition=right;align=left;" parent="uK_DNEDG53lvTUli0mf8-33" vertex="1">
          <mxGeometry x="570" y="33.13" width="25" height="23.75" as="geometry" />
        </mxCell>
        <mxCell id="uK_DNEDG53lvTUli0mf8-39" value="Editar" style="strokeColor=#999999;verticalLabelPosition=middle;shadow=0;dashed=0;verticalAlign=middle;strokeWidth=2;shape=mxgraph.mockup.misc.editIcon;labelBackgroundColor=none;labelBorderColor=none;fillColor=none;html=1;horizontal=1;labelPosition=right;align=left;" parent="uK_DNEDG53lvTUli0mf8-33" vertex="1">
          <mxGeometry x="640" y="35" width="20" height="20" as="geometry" />
        </mxCell>
        <mxCell id="uK_DNEDG53lvTUli0mf8-40" value="" style="strokeColor=#999999;verticalLabelPosition=bottom;shadow=0;dashed=0;verticalAlign=top;strokeWidth=2;html=1;shape=mxgraph.mockup.misc.shareIcon;" parent="uK_DNEDG53lvTUli0mf8-33" vertex="1">
          <mxGeometry x="500" y="33.129999999999995" width="30" height="25" as="geometry" />
        </mxCell>
        <mxCell id="dfJeb_BmP-7Ok51M9tEj-1" value="Esta ação não pode ser desfeita!" style="strokeWidth=1;shadow=0;dashed=0;align=center;html=1;shape=mxgraph.mockup.containers.rrect;rSize=0;strokeColor=#666666;fontColor=#666666;fontSize=17;verticalAlign=top;whiteSpace=wrap;fillColor=#ffffff;spacingTop=32;" vertex="1" parent="uK_DNEDG53lvTUli0mf8-33">
          <mxGeometry x="180" y="-40" width="250" height="140" as="geometry" />
        </mxCell>
        <mxCell id="dfJeb_BmP-7Ok51M9tEj-2" value="&amp;nbsp; &amp;nbsp;Deseja realmente excluir ?&amp;nbsp;" style="strokeWidth=1;shadow=0;dashed=0;align=center;html=1;shape=mxgraph.mockup.containers.rrect;rSize=0;fontSize=17;fontColor=#666666;strokeColor=#666666;align=left;spacingLeft=8;fillColor=none;resizeWidth=1;" vertex="1" parent="dfJeb_BmP-7Ok51M9tEj-1">
          <mxGeometry width="250" height="40" relative="1" as="geometry" />
        </mxCell>
        <mxCell id="dfJeb_BmP-7Ok51M9tEj-4" value="Cancel" style="strokeWidth=1;shadow=0;dashed=0;align=center;html=1;shape=mxgraph.mockup.containers.rrect;rSize=0;fontSize=16;fontColor=#666666;strokeColor=#c4c4c4;whiteSpace=wrap;fillColor=none;" vertex="1" parent="dfJeb_BmP-7Ok51M9tEj-1">
          <mxGeometry x="0.25" y="1" width="90" height="25" relative="1" as="geometry">
            <mxPoint x="-45" y="-33" as="offset" />
          </mxGeometry>
        </mxCell>
        <mxCell id="dfJeb_BmP-7Ok51M9tEj-5" value="OK" style="strokeWidth=1;shadow=0;dashed=0;align=center;html=1;shape=mxgraph.mockup.containers.rrect;rSize=0;fontSize=16;fontColor=#666666;strokeColor=#c4c4c4;whiteSpace=wrap;fillColor=none;" vertex="1" parent="dfJeb_BmP-7Ok51M9tEj-1">
          <mxGeometry x="0.75" y="1" width="90" height="25" relative="1" as="geometry">
            <mxPoint x="-45" y="-33" as="offset" />
          </mxGeometry>
        </mxCell>
      </root>
    </mxGraphModel>
  </diagram>
  <diagram name="FormCandidato" id="gzVq4q3YyxGQ9W5EwFiD">
    <mxGraphModel dx="1120" dy="1560" grid="1" gridSize="10" guides="1" tooltips="1" connect="1" arrows="1" fold="1" page="1" pageScale="1" pageWidth="850" pageHeight="1100" math="0" shadow="0">
      <root>
        <mxCell id="e0ZoZhWOo2Kw0YxFAd5L-0" />
        <mxCell id="e0ZoZhWOo2Kw0YxFAd5L-1" parent="e0ZoZhWOo2Kw0YxFAd5L-0" />
        <mxCell id="e0ZoZhWOo2Kw0YxFAd5L-2" value="" style="strokeWidth=1;shadow=0;dashed=0;align=center;html=1;shape=mxgraph.mockup.containers.browserWindow;rSize=0;strokeColor=#666666;strokeColor2=#008cff;strokeColor3=#c4c4c4;mainText=,;recursiveResize=0;" parent="e0ZoZhWOo2Kw0YxFAd5L-1" vertex="1">
          <mxGeometry x="10" y="-640" width="840" height="500" as="geometry" />
        </mxCell>
        <mxCell id="e0ZoZhWOo2Kw0YxFAd5L-3" value="Page 1" style="strokeWidth=1;shadow=0;dashed=0;align=center;html=1;shape=mxgraph.mockup.containers.anchor;fontSize=17;fontColor=#666666;align=left;" parent="e0ZoZhWOo2Kw0YxFAd5L-2" vertex="1">
          <mxGeometry x="60" y="12" width="110" height="26" as="geometry" />
        </mxCell>
        <mxCell id="e0ZoZhWOo2Kw0YxFAd5L-4" value="https://www.draw.io" style="strokeWidth=1;shadow=0;dashed=0;align=center;html=1;shape=mxgraph.mockup.containers.anchor;rSize=0;fontSize=17;fontColor=#666666;align=left;" parent="e0ZoZhWOo2Kw0YxFAd5L-2" vertex="1">
          <mxGeometry x="130" y="60" width="250" height="26" as="geometry" />
        </mxCell>
        <mxCell id="e0ZoZhWOo2Kw0YxFAd5L-5" value="" style="strokeWidth=1;shadow=0;dashed=0;align=center;html=1;shape=mxgraph.mockup.forms.searchBox;strokeColor=#999999;mainText=;strokeColor2=#008cff;fontColor=#666666;fontSize=17;align=left;spacingLeft=3;" parent="e0ZoZhWOo2Kw0YxFAd5L-2" vertex="1">
          <mxGeometry y="110" width="830" height="60" as="geometry" />
        </mxCell>
        <mxCell id="e0ZoZhWOo2Kw0YxFAd5L-6" value="" style="verticalLabelPosition=bottom;shadow=0;dashed=0;align=center;html=1;verticalAlign=top;strokeWidth=1;shape=mxgraph.mockup.containers.userFemale;strokeColor=#666666;strokeColor2=#008cff;" parent="e0ZoZhWOo2Kw0YxFAd5L-2" vertex="1">
          <mxGeometry x="750" y="110" width="80" height="60" as="geometry" />
        </mxCell>
        <mxCell id="e0ZoZhWOo2Kw0YxFAd5L-7" value="" style="strokeWidth=1;shadow=0;dashed=0;align=center;html=1;shape=mxgraph.mockup.containers.rrect;rSize=0;strokeColor=#666666;" parent="e0ZoZhWOo2Kw0YxFAd5L-2" vertex="1">
          <mxGeometry y="170" width="130" height="330" as="geometry" />
        </mxCell>
        <mxCell id="e0ZoZhWOo2Kw0YxFAd5L-8" value="&lt;a href=&quot;data:page/id,mzWLLx_lMGydZXTV0ku3&quot;&gt;Candidato&lt;/a&gt;" style="strokeColor=#001DBC;fillColor=#0050ef;strokeWidth=1;shadow=0;dashed=0;align=center;html=1;shape=mxgraph.mockup.containers.rrect;rSize=0;fontSize=17;fontColor=#ffffff;fontStyle=1;resizeWidth=1;" parent="e0ZoZhWOo2Kw0YxFAd5L-7" vertex="1">
          <mxGeometry width="130" height="26" relative="1" as="geometry" />
        </mxCell>
        <mxCell id="e0ZoZhWOo2Kw0YxFAd5L-9" value="Group 2" style="strokeColor=inherit;fillColor=inherit;gradientColor=inherit;strokeWidth=1;shadow=0;dashed=0;align=center;html=1;shape=mxgraph.mockup.containers.rrect;rSize=0;fontSize=17;fontColor=#666666;fontStyle=1;resizeWidth=1;" parent="e0ZoZhWOo2Kw0YxFAd5L-7" vertex="1">
          <mxGeometry width="100" height="26" relative="1" as="geometry">
            <mxPoint y="130" as="offset" />
          </mxGeometry>
        </mxCell>
        <mxCell id="e0ZoZhWOo2Kw0YxFAd5L-10" value="Group 3" style="strokeWidth=1;shadow=0;dashed=0;align=center;html=1;shape=mxgraph.mockup.containers.rrect;rSize=0;fontSize=17;fontColor=#ffffff;fontStyle=1;fillColor=none;strokeColor=default;resizeWidth=1;" parent="e0ZoZhWOo2Kw0YxFAd5L-7" vertex="1">
          <mxGeometry width="130" height="36" relative="1" as="geometry">
            <mxPoint y="150" as="offset" />
          </mxGeometry>
        </mxCell>
        <mxCell id="e0ZoZhWOo2Kw0YxFAd5L-11" value="" style="strokeWidth=1;shadow=0;dashed=0;align=center;html=1;shape=mxgraph.mockup.forms.rrect;rSize=0;strokeColor=#999999;fillColor=#ffffff;recursiveResize=0;" parent="e0ZoZhWOo2Kw0YxFAd5L-7" vertex="1">
          <mxGeometry y="30" width="130" height="120" as="geometry" />
        </mxCell>
        <mxCell id="e0ZoZhWOo2Kw0YxFAd5L-12" value="Cadastrar" style="strokeWidth=1;shadow=0;dashed=0;align=center;html=1;shape=mxgraph.mockup.forms.rrect;rSize=0;fillColor=#eeeeee;strokeColor=#999999;gradientColor=#cccccc;align=left;spacingLeft=4;fontSize=17;fontColor=#666666;labelPosition=right;" parent="e0ZoZhWOo2Kw0YxFAd5L-11" vertex="1">
          <mxGeometry x="8" y="7.5" width="15" height="15" as="geometry" />
        </mxCell>
        <mxCell id="e0ZoZhWOo2Kw0YxFAd5L-13" value="Buscar" style="strokeWidth=1;shadow=0;dashed=0;align=center;html=1;shape=mxgraph.mockup.forms.rrect;rSize=0;fillColor=#eeeeee;strokeColor=#999999;gradientColor=#cccccc;align=left;spacingLeft=4;fontSize=17;fontColor=#666666;labelPosition=right;" parent="e0ZoZhWOo2Kw0YxFAd5L-11" vertex="1">
          <mxGeometry x="8" y="37.5" width="15" height="15" as="geometry" />
        </mxCell>
        <mxCell id="e0ZoZhWOo2Kw0YxFAd5L-14" value="Atualizar" style="strokeWidth=1;shadow=0;dashed=0;align=center;html=1;shape=mxgraph.mockup.forms.checkbox;rSize=0;resizable=0;fillColor=#aaaaaa;strokeColor=#444444;gradientColor=#666666;align=left;spacingLeft=4;fontSize=17;fontColor=#008cff;labelPosition=right;" parent="e0ZoZhWOo2Kw0YxFAd5L-11" vertex="1">
          <mxGeometry x="8" y="67.5" width="15" height="15" as="geometry" />
        </mxCell>
        <mxCell id="e0ZoZhWOo2Kw0YxFAd5L-15" value="Excluir" style="strokeWidth=1;shadow=0;dashed=0;align=center;html=1;shape=mxgraph.mockup.forms.rrect;rSize=0;fillColor=#eeeeee;strokeColor=#999999;gradientColor=#cccccc;align=left;spacingLeft=4;fontSize=17;fontColor=#666666;labelPosition=right;" parent="e0ZoZhWOo2Kw0YxFAd5L-11" vertex="1">
          <mxGeometry x="8" y="97.5" width="15" height="15" as="geometry" />
        </mxCell>
        <mxCell id="e0ZoZhWOo2Kw0YxFAd5L-16" value="" style="edgeStyle=none;html=1;" parent="e0ZoZhWOo2Kw0YxFAd5L-7" source="e0ZoZhWOo2Kw0YxFAd5L-12" target="e0ZoZhWOo2Kw0YxFAd5L-8" edge="1">
          <mxGeometry relative="1" as="geometry" />
        </mxCell>
        <mxCell id="1pzwwRibgRNmUBhZmKHy-7" value="" style="group" parent="e0ZoZhWOo2Kw0YxFAd5L-2" vertex="1" connectable="0">
          <mxGeometry x="160" y="170" width="630" height="320" as="geometry" />
        </mxCell>
        <mxCell id="1pzwwRibgRNmUBhZmKHy-0" value="" style="shape=mxgraph.mockup.containers.marginRect;rectMarginTop=10;strokeColor=#666666;strokeWidth=1;dashed=0;rounded=1;arcSize=5;recursiveResize=0;labelBackgroundColor=none;labelBorderColor=none;fillColor=none;fontColor=none;noLabel=1;" parent="1pzwwRibgRNmUBhZmKHy-7" vertex="1">
          <mxGeometry width="630" height="320" as="geometry" />
        </mxCell>
        <mxCell id="1pzwwRibgRNmUBhZmKHy-4" value="&lt;span style=&quot;background-color: rgb(32, 29, 37);&quot;&gt;Candidato a entrevista&lt;/span&gt;" style="shape=mxgraph.mockup.containers.marginRect;rectMarginTop=10;strokeColor=#666666;strokeWidth=1;dashed=0;rounded=1;arcSize=5;recursiveResize=0;labelBackgroundColor=#CCCCCC;labelBorderColor=none;fillColor=none;html=1;" parent="1pzwwRibgRNmUBhZmKHy-7" vertex="1">
          <mxGeometry width="630" height="70" as="geometry" />
        </mxCell>
        <mxCell id="lQc5ul3lHpl9XgrhCvlg-0" value="" style="group" parent="1pzwwRibgRNmUBhZmKHy-7" vertex="1" connectable="0">
          <mxGeometry x="20" y="100" width="220" height="30" as="geometry" />
        </mxCell>
        <mxCell id="1pzwwRibgRNmUBhZmKHy-5" value="" style="strokeWidth=1;shadow=0;dashed=0;align=center;html=1;shape=mxgraph.mockup.text.textBox;fontColor=#666666;align=left;fontSize=17;spacingLeft=4;spacingTop=-3;strokeColor=#666666;mainText=;labelBackgroundColor=#201d25;labelBorderColor=none;fillColor=none;" parent="lQc5ul3lHpl9XgrhCvlg-0" vertex="1">
          <mxGeometry x="70" width="150" height="30" as="geometry" />
        </mxCell>
        <mxCell id="1pzwwRibgRNmUBhZmKHy-6" value="Nome" style="text;html=1;strokeColor=none;fillColor=none;align=center;verticalAlign=middle;whiteSpace=wrap;rounded=0;labelBackgroundColor=#201d25;labelBorderColor=none;fontColor=none;" parent="lQc5ul3lHpl9XgrhCvlg-0" vertex="1">
          <mxGeometry width="60" height="30" as="geometry" />
        </mxCell>
      </root>
    </mxGraphModel>
  </diagram>
</mxfile>
